<?xml version="1.0" encoding="utf-8"?>
<!-- Generator: Adobe Illustrator 16.0.0, SVG Export Plug-In . SVG Version: 6.00 Build 0)  -->
<!DOCTYPE svg PUBLIC "-//W3C//DTD SVG 1.1//EN" "http://www.w3.org/Graphics/SVG/1.1/DTD/svg11.dtd">
<svg version="1.1" id="Layer_1" xmlns="http://www.w3.org/2000/svg" xmlns:xlink="http://www.w3.org/1999/xlink" x="0px" y="0px"
	 width="400px" height="62px" viewBox="0 0 400 62" enable-background="new 0 0 400 62" xml:space="preserve">
<g>
	<path fill="#FFFFFF" d="M53.687,4.188c-0.704,0-1.366-0.125-1.985-0.373l-1.739-0.683c-0.455-0.124-0.868-0.186-1.24-0.186
		c-2.483,0-4.718,2.192-6.703,6.578l-6.703,14.771c-1.531,3.352-3.021,6.3-4.469,8.845c-1.449,2.544-2.896,4.728-4.345,6.548
		c6.123,3.352,11.564,5.027,16.323,5.027c2.275,0,4.158-0.372,5.647-1.117l4.779-2.421c-0.414,2.111-2.296,3.745-5.648,4.903
		c-2.606,0.828-5.234,1.241-7.882,1.241c-2.772,0-5.235-0.373-7.386-1.116l-11.047-3.974c-2.772,3.394-6.952,5.09-12.538,5.09
		C2.917,47.323,0,45.71,0,42.482c0-2.111,1.138-3.745,3.414-4.903c1.862-0.993,3.93-1.489,6.206-1.489
		c4.386,0,9.041,0.744,13.965,2.234c1.034-1.53,2.213-3.631,3.537-6.301c1.324-2.668,2.772-5.927,4.346-9.774
		c3.144-7.488,5.771-12.62,7.882-15.392c3.31-4.428,7.323-6.642,12.041-6.642c1.695,0,3.247,0.518,4.654,1.552
		C56.045,3.381,55.259,4.188,53.687,4.188z M15.517,39.192c-1.862-0.536-3.704-0.806-5.523-0.806c-1.201,0-2.794,0.31-4.779,0.93
		C2.771,40.062,1.552,40.89,1.552,41.8c0,2.358,2.358,3.537,7.075,3.537c1.862,0,3.744-0.268,5.648-0.807
		c2.109-0.537,3.826-1.303,5.151-2.297C19.427,40.91,18.123,39.897,15.517,39.192z"/>
	<path fill="#FFFFFF" d="M59.893,44.965c-1.324,0.538-3.455,1.117-6.393,1.738c-0.785-0.455-1.137-1.097-1.055-1.925l5.834-13.592
		h3.6l-5.213,13.221c1.405,0,3.165-0.352,5.275-1.057c0.579-0.206,1.179-0.424,1.8-0.65c0.62-0.229,1.262-0.467,1.924-0.714
		C63.968,43.187,62.044,44.18,59.893,44.965z M63.245,25.662c-1.201,0-1.801-0.702-1.801-2.109c0-0.951,0.228-1.821,0.683-2.607
		c0.538-0.909,1.282-1.366,2.234-1.366c1.282,0,1.924,0.602,1.924,1.801C66.285,24.235,65.271,25.662,63.245,25.662z"/>
	<path fill="#FFFFFF" d="M77.333,45.15c1.862-0.206,3.713-0.496,5.555-0.868c1.841-0.372,3.734-0.848,5.679-1.428
		c-1.821,1.49-3.869,2.545-6.144,3.166l-6.704,1.737l-4.717,11.233l-3.165,0.249l4.53-12.29c-2.73-0.247-4.096-1.943-4.096-5.089
		c0-3.806,1.758-7.075,5.275-9.807l2.42,0.621c-2.854,2.482-4.281,5.317-4.281,8.503c0,2.318,0.434,3.476,1.303,3.476l0.931-0.247
		l11.979-29.358c0.703-0.454,1.406-0.683,2.11-0.683c0.331,0,0.6,0.084,0.807,0.249l0.993,0.683L77.333,45.15z"/>
	<path fill="#FFFFFF" d="M105.199,37.083c-0.869,1.076-1.903,1.861-3.103,2.358l-9.311,3.849c0.125,0.496,0.414,1.013,0.869,1.551
		s0.91,0.849,1.365,0.931c2.027,0,5.44-0.89,10.241-2.668c-4.221,2.729-8.048,4.096-11.481,4.096c-3.643,0-5.463-1.53-5.463-4.593
		c0-2.647,1.841-5.379,5.524-8.193c3.268-2.481,6.021-3.723,8.255-3.723c1.075,0,2.026,0.228,2.854,0.683
		c1.034,0.538,1.552,1.303,1.552,2.296C106.503,34.869,106.068,36.007,105.199,37.083z M101.041,32.428
		c-1.158,0-2.648,0.972-4.469,2.917c-2.069,2.194-3.103,4.407-3.103,6.642c1.902-0.538,3.724-1.469,5.461-2.794
		c2.151-1.613,3.228-3.206,3.228-4.779C102.158,33.173,101.786,32.511,101.041,32.428z"/>
	<path fill="#FFFFFF" d="M108.86,45.399l1.366,0.063c1.572,0.083,3.538-0.372,5.896-1.366l3.413-1.364l-0.993,1.302
		c-4.096,1.987-7.303,2.979-9.62,2.979c-1.365,0-2.296-0.123-2.793-0.372c-0.704-0.372-1.055-1.158-1.055-2.358
		c0-0.33,0.124-0.848,0.372-1.551l11.172-25.137l0.559-0.249l0.993-0.248c0.455,0,0.931,0.123,1.427,0.372l0.559,0.372
		L108.86,45.399z"/>
	<path fill="#FFFFFF" d="M126.3,48.007c-1.737,0-3.187-0.487-4.344-1.459c-1.159-0.973-1.738-2.328-1.738-4.065
		c0-2.938,1.965-5.502,5.896-7.696c3.393-1.861,6.703-2.792,9.931-2.792c1.158,0,2.358,0.289,3.6,0.868
		c0.289,0.207,0.724,0.456,1.303,0.745c0,1.117-0.642,1.676-1.923,1.676l-3.477-1.117c-1.2-0.372-2.11-0.559-2.73-0.559
		c-1.945,0-3.745,1.015-5.399,3.041c-1.697,2.069-2.545,4.055-2.545,5.958c0,2.606,1.593,3.91,4.778,3.91
		c1.986,0,3.745-0.537,5.275-1.613c-0.662-1.2-0.992-2.38-0.992-3.538c0-0.662,0.124-1.304,0.372-1.924
		c0.249-0.621,0.579-1.159,0.993-1.613c0.413-0.455,0.9-0.828,1.458-1.117c0.559-0.289,1.148-0.436,1.77-0.436
		c0.413,0,0.848,0.249,1.304,0.745c0.454,0.496,0.683,0.952,0.683,1.366c0.04,1.075-0.166,2.15-0.621,3.227l-1.365,3.041
		l4.034-1.117C138.465,46.517,133.044,48.007,126.3,48.007z M138.341,37.517c-0.496,0-0.931,0.477-1.304,1.428
		c-0.331,0.869-0.496,1.552-0.496,2.048c0,0.869,0.352,1.49,1.055,1.862c1.241-0.248,1.862-1.241,1.862-2.979
		C139.458,38.304,139.086,37.517,138.341,37.517z"/>
	<path fill="#FFFFFF" d="M165.401,44.53c-4.056,1.78-7.013,2.669-8.875,2.669c-0.373,0-0.869-0.103-1.489-0.31l-0.436-0.187
		c0.083-0.91,0.28-1.852,0.59-2.824c0.311-0.972,0.692-1.996,1.148-3.072l2.545-5.586l-14.461,10.179l-1.304,1.8h-2.731
		l6.704-15.145h3.91l-3.414,8.628l11.048-7.448c0.909-0.578,2.007-0.868,3.289-0.868c0.827,0,1.334,0.104,1.521,0.31
		c0.187,0.208,0.279,0.724,0.279,1.552c0,0.621-0.124,1.18-0.372,1.676l-4.717,9.745c0.33-0.083,0.796-0.197,1.396-0.343
		c0.599-0.144,1.313-0.361,2.141-0.651l3.476-1.364L165.401,44.53z"/>
	<path fill="#FFFFFF" d="M190.972,44.407l-7.075,3.102c-1.407,3.642-3.166,6.725-5.276,9.249c-2.813,3.351-5.793,5.026-8.938,5.026
		c-1.448,0-2.172-0.91-2.172-2.73c0-2.69,1.965-5.338,5.896-7.945c0.826-0.537,2.833-1.654,6.021-3.351l1.799-5.151
		c-3.062,3.104-6.517,4.655-10.364,4.655c-1.738,0-2.979-0.187-3.724-0.559c-0.952-0.579-1.428-1.676-1.428-3.29
		c0-3.144,1.944-5.978,5.834-8.502c3.517-2.235,6.951-3.353,10.303-3.353c1.862,0,3.848,0.373,5.958,1.117l0.125,0.683l-0.125,0.621
		c-0.828,0.58-1.635,0.869-2.42,0.869c-0.249,0-1.139-0.311-2.669-0.932c-0.869-0.33-1.821-0.496-2.855-0.496
		c-1.696,0-3.621,0.89-5.771,2.669c-2.441,1.985-3.662,4.117-3.662,6.393c0,1.737,0.932,2.607,2.793,2.607
		c3.973,0,7.944-2.938,11.916-8.814l3.725-0.247l-3.973,9.495l6.766-2.11L190.972,44.407z M177.628,50.054
		c-0.911,0-2.256,0.89-4.035,2.67c-2.069,1.985-3.103,3.909-3.103,5.771c0,1.117,0.186,1.759,0.559,1.924
		c1.489,0,3.103-1.428,4.841-4.282c1.572-2.565,2.358-4.448,2.358-5.648C178.248,50.24,178.04,50.096,177.628,50.054z"/>
	<path fill="#FFFFFF" d="M218.898,45.399l1.366,0.063c1.572,0.083,3.538-0.372,5.896-1.366l3.413-1.364l-0.993,1.302
		c-4.096,1.987-7.303,2.979-9.62,2.979c-1.365,0-2.296-0.123-2.793-0.372c-0.704-0.372-1.055-1.158-1.055-2.358
		c0-0.33,0.124-0.848,0.372-1.551l11.172-25.137l0.559-0.249l0.993-0.248c0.455,0,0.931,0.123,1.427,0.372l0.559,0.372
		L218.898,45.399z"/>
	<path fill="#FFFFFF" d="M247.076,37.083c-0.869,1.076-1.903,1.861-3.104,2.358l-9.31,3.849c0.125,0.496,0.414,1.013,0.869,1.551
		s0.909,0.849,1.365,0.931c2.027,0,5.44-0.89,10.241-2.668c-4.221,2.729-8.048,4.096-11.482,4.096c-3.642,0-5.462-1.53-5.462-4.593
		c0-2.647,1.841-5.379,5.523-8.193c3.269-2.481,6.021-3.723,8.255-3.723c1.076,0,2.027,0.228,2.855,0.683
		c1.034,0.538,1.551,1.303,1.551,2.296C248.379,34.869,247.944,36.007,247.076,37.083z M242.918,32.428
		c-1.158,0-2.648,0.972-4.469,2.917c-2.069,2.194-3.103,4.407-3.103,6.642c1.901-0.538,3.724-1.469,5.461-2.794
		c2.15-1.613,3.228-3.206,3.228-4.779C244.035,33.173,243.662,32.511,242.918,32.428z"/>
	<path fill="#FFFFFF" d="M262.033,47.386c-1.034,0-1.842-0.146-2.421-0.436l0.808-4.468c-3.394,3.145-7.098,4.717-11.109,4.717
		c-0.869,0-1.688-0.269-2.451-0.808c-0.767-0.536-1.148-1.219-1.148-2.047c0-3.849,2.255-7.158,6.764-9.932
		c3.642-2.233,7.117-3.352,10.428-3.352c1.282,0,2.647,0.415,4.097,1.242c-0.042,0.662-0.395,1.158-1.055,1.49
		c-0.705,0.289-1.429,0.434-2.174,0.434c-0.496,0-1.282-0.207-2.358-0.62l-1.551-0.312c-2.193,0-4.324,1.098-6.393,3.29
		c-2.027,2.151-3.041,4.324-3.041,6.518c0,0.413,0.144,0.89,0.434,1.427c0.289,0.539,0.621,0.829,0.993,0.869
		c1.448,0,2.938-0.383,4.469-1.148s2.772-1.728,3.725-2.886l3.538-4.345l3.909-2.421l0.124,1.18c0,0.662-0.084,1.158-0.248,1.49
		l-3.538,8.379l2.731-0.745l3.227-1.366h1.553C267.66,46.103,264.557,47.386,262.033,47.386z"/>
	<path fill="#FFFFFF" d="M286.858,36.462c-0.58,1.241-1.159,2.194-1.737,2.854l-3.973,1.117l1.924-4.964
		c-1.573,0.537-3.289,1.573-5.15,3.102c-2.483,2.071-3.725,4.098-3.725,6.083l0.124,1.241l3.91-0.745l6.021-1.613l-0.249,0.993
		l-7.014,1.924l-4.717,0.994c-0.703,0-1.158-0.063-1.365-0.187c-0.208-0.125-0.35-0.518-0.435-1.18
		c0-3.889,1.883-8.481,5.648-13.778l0.559-0.249l0.993-0.31l1.117,0.249c0.164,0.082,0.311,0.145,0.435,0.186
		c0.123,0.041,0.228,0.084,0.311,0.124l-1.801,5.213l4.283-2.668c0.661-0.413,1.375-0.828,2.141-1.241s1.604-0.848,2.514-1.304
		c0.661,0.166,0.993,0.496,0.993,0.992C287.706,34.083,287.437,35.139,286.858,36.462z"/>
	<path fill="#FFFFFF" d="M309.699,44.53c-4.056,1.78-7.015,2.669-8.876,2.669c-0.372,0-0.869-0.103-1.489-0.31l-0.435-0.187
		c0.082-0.91,0.279-1.852,0.59-2.824c0.31-0.972,0.692-1.996,1.148-3.072l2.545-5.586l-14.462,10.179l-1.304,1.8h-2.73l6.702-15.145
		h3.911l-3.413,8.628l11.047-7.448c0.91-0.578,2.006-0.868,3.289-0.868c0.828,0,1.335,0.104,1.521,0.31
		c0.187,0.208,0.278,0.724,0.278,1.552c0,0.621-0.123,1.18-0.372,1.676l-4.717,9.745c0.33-0.083,0.796-0.197,1.397-0.343
		c0.599-0.144,1.313-0.361,2.141-0.651l3.476-1.364L309.699,44.53z"/>
	<path fill="#FFFFFF" d="M317.083,44.965c-1.324,0.538-3.455,1.117-6.393,1.738c-0.785-0.455-1.138-1.097-1.055-1.925l5.834-13.592
		h3.6l-5.213,13.221c1.406,0,3.166-0.352,5.275-1.057c0.579-0.206,1.179-0.424,1.8-0.65c0.621-0.229,1.262-0.467,1.924-0.714
		C321.158,43.187,319.234,44.18,317.083,44.965z M320.436,25.662c-1.201,0-1.8-0.702-1.8-2.109c0-0.951,0.227-1.821,0.683-2.607
		c0.536-0.909,1.281-1.366,2.234-1.366c1.281,0,1.924,0.602,1.924,1.801C323.477,24.235,322.462,25.662,320.436,25.662z"/>
	<path fill="#FFFFFF" d="M346.315,44.53c-4.056,1.78-7.014,2.669-8.876,2.669c-0.372,0-0.868-0.103-1.489-0.31l-0.434-0.187
		c0.081-0.91,0.278-1.852,0.589-2.824c0.311-0.972,0.692-1.996,1.148-3.072l2.545-5.586l-14.461,10.179l-1.304,1.8h-2.73
		l6.702-15.145h3.91l-3.413,8.628l11.047-7.448c0.91-0.578,2.007-0.868,3.289-0.868c0.828,0,1.335,0.104,1.521,0.31
		c0.187,0.208,0.278,0.724,0.278,1.552c0,0.621-0.123,1.18-0.372,1.676l-4.717,9.745c0.331-0.083,0.796-0.197,1.397-0.343
		c0.599-0.144,1.313-0.361,2.141-0.651l3.476-1.364L346.315,44.53z"/>
	<path fill="#FFFFFF" d="M371.887,44.407l-7.075,3.102c-1.407,3.642-3.166,6.725-5.275,9.249c-2.814,3.351-5.794,5.026-8.938,5.026
		c-1.449,0-2.173-0.91-2.173-2.73c0-2.69,1.964-5.338,5.896-7.945c0.828-0.537,2.834-1.654,6.021-3.351l1.8-5.151
		c-3.062,3.104-6.517,4.655-10.364,4.655c-1.737,0-2.979-0.187-3.724-0.559c-0.953-0.579-1.429-1.676-1.429-3.29
		c0-3.144,1.945-5.978,5.836-8.502c3.516-2.235,6.95-3.353,10.302-3.353c1.862,0,3.849,0.373,5.958,1.117l0.125,0.683l-0.125,0.621
		c-0.828,0.58-1.635,0.869-2.421,0.869c-0.247,0-1.138-0.311-2.668-0.932c-0.869-0.33-1.821-0.496-2.854-0.496
		c-1.697,0-3.622,0.89-5.773,2.669c-2.441,1.985-3.661,4.117-3.661,6.393c0,1.737,0.932,2.607,2.793,2.607
		c3.972,0,7.944-2.938,11.917-8.814l3.723-0.247l-3.972,9.495l6.766-2.11L371.887,44.407z M358.542,50.054
		c-0.909,0-2.255,0.89-4.034,2.67c-2.069,1.985-3.104,3.909-3.104,5.771c0,1.117,0.187,1.759,0.559,1.924
		c1.49,0,3.104-1.428,4.842-4.282c1.571-2.565,2.358-4.448,2.358-5.648C359.163,50.24,358.955,50.096,358.542,50.054z"/>
	<path fill="#FFFFFF" d="M378.713,47.634c-0.745,0-1.396-0.248-1.955-0.744c-0.559-0.498-0.839-1.118-0.839-1.862
		c0-0.828,0.258-1.511,0.776-2.049c0.518-0.537,1.189-0.807,2.018-0.807c1.778,0,2.668,0.829,2.668,2.482
		C381.381,46.641,380.491,47.634,378.713,47.634z"/>
	<path fill="#FFFFFF" d="M388.022,47.634c-0.745,0-1.397-0.248-1.956-0.744c-0.558-0.498-0.838-1.118-0.838-1.862
		c0-0.828,0.258-1.511,0.776-2.049c0.517-0.537,1.189-0.807,2.018-0.807c1.777,0,2.668,0.829,2.668,2.482
		C390.69,46.641,389.8,47.634,388.022,47.634z"/>
	<path fill="#FFFFFF" d="M397.332,47.634c-0.745,0-1.397-0.248-1.956-0.744c-0.559-0.498-0.838-1.118-0.838-1.862
		c0-0.828,0.258-1.511,0.776-2.049c0.517-0.537,1.189-0.807,2.018-0.807c1.777,0,2.668,0.829,2.668,2.482
		C400,46.641,399.109,47.634,397.332,47.634z"/>
</g>
</svg>
